<svg width="35" height="35" viewBox="0 0 35 35" fill="none" xmlns="http://www.w3.org/2000/svg">
<path d="M17.5 0C15.9551 0 14.7 1.25508 14.7 2.8C14.7 4.34492 15.9551 5.6 17.5 5.6C19.045 5.6 20.3 4.34492 20.3 2.8C20.3 1.25508 19.045 0 17.5 0ZM13.5625 4.26562C10.3633 5.63555 8.40005 8.71992 8.40005 12.6C8.40005 20.3 5.7395 22.2332 4.1563 23.3844C3.45356 23.893 2.80005 24.366 2.80005 25.2C2.80005 28.1449 7.19692 29.4 17.5 29.4C27.8032 29.4 32.2 28.1449 32.2 25.2C32.2 24.366 31.5465 23.893 30.8438 23.3844C29.2606 22.2332 26.6 20.3 26.6 12.6C26.6 8.70899 24.6395 5.63282 21.4375 4.26562C20.8387 5.85703 19.2965 7 17.5 7C15.7036 7 14.1614 5.8543 13.5625 4.26562ZM13.3 30.7125C13.3 30.7398 13.3 30.7727 13.3 30.8C13.3 33.116 15.184 35 17.5 35C19.8161 35 21.7 33.116 21.7 30.8C21.7 30.7727 21.7 30.7398 21.7 30.7125C20.3821 30.7672 18.9821 30.8 17.5 30.8C16.018 30.8 14.618 30.7672 13.3 30.7125Z" fill="white"/>
</svg>
